<svg xmlns="http://www.w3.org/2000/svg" aria-hidden="true" style="position:absolute;width:0;height:0;overflow:hidden">
  <defs>
    <symbol id="icon-twitter-1" viewBox="0 0 32 32">
      <path fill="#f4f4fd" d="M32 6.078c-1.1.494-2.376.858-3.712 1.029l-.068.007c1.36-.817 2.381-2.078 2.873-3.58l.013-.046c-1.197.723-2.591 1.274-4.076 1.574l-.084.014C25.746 3.797 24.045 3 22.158 3c-3.623 0-6.56 2.937-6.56 6.56 0 .52.044 1.02.152 1.496-5.468-.276-10.278-2.878-13.495-6.828l-.027-.034c-.563.949-.895 2.091-.895 3.311 0 2.264 1.145 4.261 2.888 5.442l.023.015c-1.092-.03-2.109-.325-2.997-.823l.033.017v.072c.004 3.164 2.237 5.806 5.213 6.438l.043.008c-.501.137-1.075.216-1.669.216h-.054.003c-.031.001-.067.001-.103.001-.403 0-.796-.041-1.176-.119l.037.006c.873 2.624 3.273 4.496 6.121 4.57h.009c-2.214 1.744-5.044 2.798-8.12 2.798h-.015.001c-.538 0-1.054-.024-1.57-.09C2.826 27.902 6.287 29 10.004 29h.063-.003c12.072 0 18.672-10 18.672-18.668 0-.29-.01-.57-.024-.848 1.299-.937 2.391-2.066 3.258-3.359l.03-.047z" style="fill:var(--color1, #f4f4fd)"/>
    </symbol>
    <symbol id="icon-group-7" viewBox="0 0 67 32">
      <path fill="#8e8f99" d="M33.799 15.249c-.272-.35-.435-.796-.435-1.28 0-.048.002-.096.005-.144v.006-2.054c0-.63.143-1.108.428-1.435s.776-.49 1.472-.489c.654 0 1.118.139 1.392.418.299.355.445.79.412 1.229v.483h-1.169v-.489c.001-.019.001-.042.001-.065 0-.146-.013-.289-.037-.428l.002.015c-.02-.116-.081-.214-.166-.283l-.001-.001c-.105-.071-.235-.113-.374-.113-.018 0-.035.001-.052.002h.002c-.015-.001-.033-.002-.051-.002-.147 0-.283.044-.397.12l.003-.002c-.096.078-.166.186-.193.309l-.001.004c-.029.14-.046.3-.046.465v.046-.002 2.492c-.018.24.033.481.15.7.058.074.139.133.233.17s.199.05.302.039c.15.011.298-.03.414-.113.09-.075.153-.18.174-.3v-.003c.023-.135.036-.29.036-.449 0-.018 0-.035-.001-.053v.003-.506h1.169v.462c.033.457-.109.911-.404 1.291-.269.305-.726.458-1.399.458s-1.181-.163-1.47-.501zm4.869.02c-.295-.32-.443-.786-.443-1.402v-2.16c0-.61.148-1.072.443-1.385s.789-.469 1.482-.468c.688 0 1.179.156 1.474.468.295.313.446.775.446 1.385v2.16c0 .61-.15 1.078-.45 1.4s-.789.483-1.47.483-1.184-.163-1.482-.48zm2.026-.518c.106-.2.154-.42.14-.639v-2.645c.001-.021.002-.046.002-.071 0-.204-.052-.395-.143-.562l.003.006c-.059-.076-.142-.135-.239-.172s-.204-.05-.308-.037c-.105-.013-.212 0-.309.037s-.18.096-.24.172c-.09.16-.142.35-.142.553 0 .026.001.052.003.077v-.003 2.658c-.015.22.033.439.14.639.069.067.151.121.242.156l.005.002c.089.036.192.056.3.056s.211-.021.306-.058l-.006.002c.096-.038.178-.091.247-.158v-.013zm2.782-4.834h1.259l.947 3.986.968-3.986h1.225l.123 5.753h-.906l-.097-3.998-.935 3.998h-.726l-.968-4.013-.09 4.013h-.915l.114-5.753zm5.934 0h1.961c1.13 0 1.695.545 1.695 1.634 0 1.043-.595 1.564-1.784 1.563h-.668v2.557h-1.211l.007-5.753zm1.675 2.459c.12.013.241.004.356-.028s.221-.084.31-.154c.112-.152.179-.342.179-.549 0-.036-.002-.071-.006-.105v.004c.001-.019.001-.041.001-.063 0-.163-.022-.321-.062-.471l.003.013c-.017-.057-.048-.111-.089-.158s-.094-.086-.153-.116c-.14-.059-.304-.094-.475-.094-.023 0-.046.001-.068.002h.003-.47v1.719h.47zm3.727-2.459h1.3l1.334 5.753h-1.128l-.264-1.327h-1.16l-.271 1.327h-1.145l1.334-5.753zm1.111 3.76-.453-2.415-.453 2.415h.906zm2.6-3.76h.847l1.622 3.282V9.917h1.005v5.753h-.806l-1.632-3.426v3.426H58.52l.002-5.753zm5.828 3.56-1.349-3.552h1.135l.823 2.281.772-2.281h1.111l-1.332 3.552v2.194h-1.162v-2.194zm-28.683 4.709v.301h-.988v2.338h-.414v-2.338h-.993v-.301h2.395zm3.096 2.638h-.329c-.03 0-.058-.009-.081-.026-.024-.014-.042-.035-.053-.06v-.001l-.286-.627h-1.37l-.286.627c-.009.028-.024.052-.044.071-.024.016-.053.025-.084.025h-.326l1.211-2.639h.421l1.225 2.628zm-2.004-.979h1.143l-.484-1.074c-.031-.068-.062-.151-.087-.236l-.003-.013c-.017.05-.031.098-.046.14l-.044.111-.479 1.072zm4.091.72c.076.003.152.003.228 0 .136-.014.261-.041.38-.082l-.012.003c.053-.019.107-.042.162-.065v-.593h-.484c-.012.001-.024-.001-.035-.005s-.021-.009-.03-.016c-.014-.011-.024-.029-.024-.048v-.203h.939v1.011c-.147.091-.317.164-.498.212l-.013.003c-.099.025-.2.043-.303.054-.106.011-.228.017-.353.017h-.017c-.212 0-.416-.036-.606-.102l.013.004c-.186-.065-.347-.159-.486-.278l.002.002c-.13-.114-.235-.254-.309-.41l-.003-.008c-.07-.156-.111-.338-.111-.53v-.018.001-.019c0-.193.04-.376.113-.542l-.003.009c.07-.156.176-.299.312-.418.137-.117.298-.21.474-.271l.01-.003c.207-.067.427-.101.649-.098.113 0 .225.008.337.023.198.029.377.089.539.175l-.009-.004c.074.041.145.087.211.138l-.116.163c-.009.015-.023.027-.039.036s-.036.014-.055.014c-.028-.001-.053-.008-.076-.021h.001c-.05-.024-.089-.045-.128-.068l.009.005c-.046-.026-.099-.05-.155-.069l-.007-.002c-.062-.022-.137-.043-.214-.058l-.01-.002c-.088-.015-.188-.023-.291-.023h-.017.001-.018c-.161 0-.315.027-.459.076l.01-.003c-.138.048-.256.119-.357.21l.001-.001c-.096.09-.172.199-.223.322l-.002.006c-.051.131-.081.282-.081.44s.03.309.084.448l-.003-.008c.118.253.329.446.588.539l.007.002c.154.046.317.063.479.052zm3.86-.042h1.322v.301h-1.726v-2.639h.414l-.01 2.338zm2.697.301h-.414v-2.639h.414v2.639zm1.54-2.626c.025.012.046.028.063.048l1.77 1.989c-.001-.014-.002-.03-.002-.047s.001-.033.002-.049v.002-1.966h.361v2.649h-.222c-.028 0-.054-.006-.078-.016h.001c-.025-.013-.047-.03-.065-.05l-1.767-1.987v2.051h-.346v-2.639h.215c.023 0 .046.004.068.012zm5.241-.012v.29h-1.467v.871h1.189v.28h-1.189v.9h1.467v.29h-1.893v-2.632h1.893zM10.805 1.891l18.384 4.504v15.784l-18.384-4.502V1.891zM9.626.545v17.898l20.739 5.083V5.63L9.626.545z" style="fill:var(--color2, #8e8f99)"/>
      <path fill="#8e8f99" d="M20.742 31.834 0 26.747V8.851l20.742 5.085v17.898z" style="fill:var(--color2, #8e8f99)"/>
      <path fill="#8e8f99" d="m9.97 1.688 18.144 4.448-7.716 6.66-18.146-4.45L9.97 1.688zM9.626.545 0 8.851l20.742 5.085 9.624-8.306L9.627.545zm12.283 30.282 8.457-7.299-8.457-2.074v9.374z" style="fill:var(--color2, #8e8f99)"/>
    </symbol>
    <symbol id="icon-group-5" viewBox="0 0 66 32">
      <path fill="#8e8f99" d="M10.207 9.77h-.002c-1.862 0-3.371 1.361-3.371 3.04v.002c0 1.679 1.509 3.04 3.371 3.04h.002c1.862 0 3.371-1.361 3.371-3.04v-.002c0-1.679-1.509-3.04-3.371-3.04zm24.885-.972c-.005-2.332-1.035-4.567-2.863-6.215S27.922.005 25.336 0c-2.587.004-5.067.932-6.896 2.582s-2.86 3.884-2.865 6.217v12.858s19.515-1.96 19.517-12.856v-.002zM0 25.877c.005 1.622.721 3.177 1.994 4.325s2.996 1.794 4.796 1.799c1.799-.005 3.523-.651 4.795-1.798s1.989-2.701 1.994-4.323v-8.947S0 18.298 0 25.878zm6.789 1.603c-.352 0-.695-.094-.988-.27s-.52-.426-.655-.719-.17-.615-.101-.926c.069-.311.238-.597.487-.821s.565-.377.91-.439c.345-.062.702-.03 1.027.091s.603.327.798.59c.195.264.3.573.3.891.001.211-.044.42-.133.615s-.22.373-.385.522c-.165.149-.362.268-.578.349s-.448.123-.682.123v-.006zm12.418-2.883v3.329h-.686v-3.329h.686zm1.326 1.422v.535h-1.514v-.535h1.514zm.16-1.422v.537h-1.674v-.537h1.674zm3.133 1.587v.158c0 .253-.034.48-.103.681s-.165.373-.29.515c-.122.137-.271.246-.44.319l-.008.003c-.163.071-.354.112-.554.112h-.021.001c-.209 0-.4-.037-.574-.112-.176-.077-.326-.186-.447-.321l-.001-.001c-.127-.144-.228-.315-.292-.503l-.003-.011c-.065-.194-.103-.417-.103-.649v-.034.002-.158c0-.255.034-.482.103-.681.069-.201.165-.373.29-.514.127-.142.276-.25.448-.325.174-.075.365-.112.574-.112s.402.037.574.112c.174.075.323.183.448.325.127.142.224.313.293.514.07.2.105.427.105.681zm-.693.158v-.162c0-.177-.016-.332-.048-.466s-.079-.247-.142-.338c-.113-.168-.303-.277-.518-.277h-.021.001-.021c-.214 0-.402.109-.512.275l-.001.002c-.061.091-.107.204-.139.338s-.048.29-.048.466v.162c0 .175.016.331.048.466.032.134.079.248.142.341.063.091.139.161.229.208s.193.071.309.071c.116 0 .219-.024.309-.071s.165-.117.226-.208c.061-.093.107-.207.139-.341.032-.136.048-.291.048-.466zm2.92.713v-.007c0-.055-.01-.108-.028-.156l.001.003c-.02-.054-.053-.099-.095-.133h-.001c-.047-.041-.114-.082-.199-.121s-.196-.081-.332-.123c-.176-.057-.318-.113-.457-.176l.027.011c-.136-.062-.254-.133-.361-.216l.004.003c-.098-.078-.179-.173-.24-.281l-.002-.005c-.055-.105-.087-.228-.087-.36v-.018.001-.009c0-.135.034-.261.093-.372l-.002.004c.064-.118.15-.216.254-.291l.002-.002c.11-.082.239-.146.389-.19.151-.044.316-.066.496-.066.245 0 .46.044.642.133s.325.21.425.364c.102.154.153.33.153.528h-.681v-.011c0-.09-.023-.174-.063-.247l.001.003c-.042-.076-.105-.137-.181-.175l-.002-.001c-.082-.041-.179-.064-.282-.064h-.025.001-.024c-.099 0-.192.02-.277.057l.005-.002c-.074.03-.134.08-.177.143l-.001.001c-.037.055-.059.122-.059.195v.006c0 .056.014.107.041.153.029.046.072.088.128.128s.126.077.208.112c.082.035.178.069.286.103.181.055.341.117.478.185.139.069.255.146.348.231.173.156.281.382.281.632v.027-.001c0 .145-.028.274-.085.389s-.138.211-.245.29c-.107.079-.234.139-.382.181s-.313.062-.496.062c-.165 0-.327-.021-.487-.064-.166-.046-.312-.114-.442-.202l.005.003c-.13-.088-.233-.201-.311-.338s-.117-.3-.117-.487h.688c0 .104.016.191.048.263s.077.13.135.174c.059.044.13.076.21.096.082.02.172.03.27.03h.024c.097 0 .189-.018.274-.052l-.005.002c.135-.053.228-.182.228-.332v-.009zm2.641-2.458v3.329h-.684v-3.329h.684zm1.024 0v.537h-2.716v-.537h2.716zm2.625 2.794v.535h-1.772v-.535h1.772zm-1.548-2.794v3.329h-.686v-3.329h.686zm1.317 1.356v.521h-1.541v-.521h1.541zm.229-1.356v.537h-1.77v-.537h1.77zm.402 0h1.242c.255 0 .473.038.656.114s.326.189.425.338.149.333.149.551c0 .178-.03.332-.091.46-.06.128-.146.235-.252.317l-.002.001c-.109.084-.236.152-.373.198l-.009.003-.217.114h-1.079l-.005-.535h.803c.12 0 .22-.021.3-.064s.139-.102.178-.178c.039-.074.062-.161.062-.254v-.011.001c0-.107-.02-.199-.059-.277s-.1-.137-.181-.178-.182-.062-.304-.062h-.556v2.792h-.686v-3.329zm1.862 3.329-.759-1.484.725-.005.768 1.457v.032h-.734zm3.601-1.186h-.848v-.535h.848c.008 0 .019.001.029.001.106 0 .206-.024.296-.066l-.004.002c.082-.044.143-.105.181-.183s.057-.165.057-.263c0-.099-.019-.191-.057-.277s-.098-.154-.181-.206-.189-.078-.32-.078h-.611v2.792h-.686v-3.329h1.297c.261 0 .484.047.67.142.187.093.331.222.43.386s.149.353.149.565c0 .215-.05.401-.149.558s-.242.278-.43.364c-.185.081-.402.129-.629.129-.014 0-.029 0-.043-.001h.002zm3.956.651v.535H40.39v-.535h1.772zm-1.548-2.794v3.329h-.686v-3.329h.686zm1.317 1.356v.521H40.39v-.521h1.541zm.229-1.356v.537h-1.77v-.537h1.77zm1.936 0v3.329h-.684v-3.329h.684zm1.025 0v.537h-2.716v-.537h2.716zm2.625 2.794v.535h-1.772v-.535h1.772zm-1.548-2.794v3.329h-.686v-3.329h.686zm1.317 1.356v.521h-1.541v-.521h1.541zm.229-1.356v.537h-1.77v-.537h1.77zm.402 0h1.242c.255 0 .473.038.656.114s.326.189.425.338.149.333.149.551c0 .178-.031.332-.091.46s-.146.235-.252.317l-.002.001c-.109.084-.236.152-.373.198l-.009.003-.217.114h-1.079l-.005-.535h.803c.12 0 .22-.021.3-.064s.139-.102.178-.178c.039-.074.062-.161.062-.254v-.011.001c0-.107-.02-.199-.059-.277s-.1-.137-.181-.178c-.083-.039-.18-.062-.282-.062h-.023.001-.556v2.792h-.686v-3.329zm1.861 3.329-.759-1.484.725-.005.768 1.457v.032h-.734zm2.872-.871v-.007c0-.055-.01-.108-.028-.156l.001.003c-.02-.054-.053-.099-.095-.133h-.001c-.047-.041-.114-.082-.199-.121s-.196-.081-.332-.123c-.176-.057-.318-.113-.457-.176l.027.011c-.136-.062-.254-.133-.361-.216l.004.003c-.098-.078-.179-.173-.24-.281l-.002-.005c-.055-.105-.087-.228-.087-.36v-.018.001c0-.139.03-.264.091-.377.064-.118.15-.216.254-.291l.002-.002c.11-.082.239-.146.389-.19s.316-.066.496-.066c.245 0 .46.044.642.133s.325.21.425.364c.102.154.153.33.153.528h-.681v-.011c0-.09-.023-.174-.063-.247l.001.003c-.042-.076-.105-.137-.181-.175l-.002-.001c-.082-.041-.179-.064-.282-.064h-.025.001-.024c-.099 0-.192.02-.278.057l.005-.002c-.074.03-.134.08-.177.143l-.001.001c-.037.055-.059.122-.059.195v.006c0 .056.014.107.041.153.029.046.072.088.128.128s.126.077.208.112c.082.035.178.069.286.103.181.055.341.117.478.185.139.069.255.146.348.231.173.156.281.382.281.632v.027-.001c0 .145-.028.274-.085.389s-.138.211-.245.29c-.107.079-.234.139-.382.181s-.313.062-.496.062c-.165 0-.327-.021-.487-.064-.166-.046-.312-.114-.442-.202l.005.003c-.13-.088-.233-.201-.311-.338s-.117-.3-.117-.487h.688c0 .104.016.191.048.263s.077.13.135.174c.059.044.13.076.21.096.082.02.172.03.27.03h.024c.097 0 .189-.018.274-.052l-.005.002c.135-.053.228-.182.228-.332v-.009z" style="fill:var(--color2, #8e8f99)"/>
    </symbol>
    <symbol id="icon-linkedin" viewBox="0 0 32 32">
      <path fill="#f4f4fd" d="M31.992 32v-.001H32V20.263c0-5.741-1.236-10.164-7.948-10.164-3.227 0-5.392 1.771-6.276 3.449h-.093v-2.913h-6.364v21.364h6.627V21.42c0-2.785.528-5.479 3.977-5.479 3.399 0 3.449 3.179 3.449 5.657v10.401h6.62zM.528 10.636h6.635V32H.528V10.636zM3.843 0C1.722 0 0 1.721 0 3.843s1.721 3.879 3.843 3.879c2.121 0 3.843-1.757 3.843-3.879C7.684 1.721 5.965.002 3.843 0z" style="fill:var(--color1, #f4f4fd)"/>
    </symbol>
    <symbol id="icon-instagram" viewBox="0 0 32 32">
      <path fill="#f4f4fd" d="M31.969 9.408c-.075-1.7-.35-2.869-.744-3.882-.424-1.111-1.053-2.058-1.849-2.837l-.001-.001c-.779-.792-1.724-1.419-2.778-1.826l-.054-.018C25.524.45 24.361.175 22.661.1 20.948.019 20.404 0 16.06 0s-4.888.019-6.595.094c-1.7.075-2.869.35-3.882.744-1.111.424-2.058 1.053-2.837 1.849l-.001.001c-.792.78-1.419 1.724-1.826 2.778l-.018.054C.507 6.539.232 7.702.157 9.402c-.081 1.713-.1 2.257-.1 6.601s.019 4.888.094 6.595c.075 1.7.35 2.869.744 3.882.427 1.11 1.056 2.057 1.849 2.837l.001.001c.78.792 1.724 1.419 2.778 1.826l.054.018c1.019.394 2.182.669 3.882.744 1.706.075 2.25.094 6.595.094s4.888-.018 6.595-.094c1.7-.075 2.869-.35 3.882-.744 2.157-.849 3.832-2.525 4.663-4.627l.019-.055c.394-1.019.669-2.182.744-3.882.075-1.707.094-2.251.094-6.595s-.006-4.888-.081-6.595zm-2.882 13.065c-.069 1.563-.331 2.407-.55 2.969-.551 1.4-1.638 2.487-3.002 3.025l-.036.013c-.563.219-1.413.481-2.969.55-1.688.075-2.194.094-6.464.094s-4.782-.018-6.464-.094c-1.563-.069-2.407-.331-2.969-.55-.721-.269-1.335-.676-1.837-1.193l-.001-.001c-.517-.504-.923-1.118-1.183-1.804l-.011-.034c-.219-.563-.481-1.413-.55-2.969-.075-1.688-.094-2.194-.094-6.464s.019-4.782.094-6.464c.069-1.563.331-2.407.55-2.969.269-.722.678-1.337 1.198-1.836l.002-.002c.504-.517 1.118-.923 1.804-1.183l.034-.011c.563-.219 1.413-.481 2.969-.55 1.688-.075 2.194-.094 6.464-.094 4.276 0 4.782.019 6.464.094 1.563.069 2.407.331 2.969.55.721.269 1.335.676 1.837 1.193l.001.001c.517.504.923 1.118 1.183 1.804l.011.034c.219.563.481 1.413.55 2.969.075 1.688.094 2.194.094 6.464s-.019 4.77-.094 6.457z" style="fill:var(--color1, #f4f4fd)"/>
      <path fill="#f4f4fd" d="M16.059 7.782c-4.538 0-8.22 3.682-8.22 8.22s3.682 8.22 8.22 8.22 8.22-3.682 8.22-8.22-3.682-8.22-8.22-8.22zm0 13.553c-2.901-.058-5.23-2.423-5.23-5.332s2.329-5.274 5.224-5.332h.005c2.901.058 5.23 2.423 5.23 5.332s-2.329 5.274-5.224 5.332h-.005zM26.524 7.457c0 1.06-.859 1.919-1.919 1.919s-1.919-.859-1.919-1.919.859-1.919 1.919-1.919 1.919.859 1.919 1.919z" style="fill:var(--color1, #f4f4fd)"/>
    </symbol>
    <symbol id="icon-group-6" viewBox="0 0 44 32">
      <path fill="#8e8f99" d="M3.333 26.694c.171.19.262.429.257.673.009.16-.023.319-.091.466s-.174.279-.307.384c-.29.197-.648.314-1.033.314-.043 0-.087-.002-.129-.004h.006H.001v-4.266h1.993c.034-.002.074-.004.115-.004.367 0 .709.107.996.291l-.007-.004c.129.097.231.22.298.358s.098.289.089.44c.001.012.001.027.001.041 0 .235-.088.449-.234.612l.001-.001c-.155.17-.368.287-.607.334.27.044.514.174.688.365zM.947 26.05h.852c.019.001.041.002.063.002.179 0 .345-.054.483-.146l-.003.002c.064-.052.114-.117.145-.189s.045-.15.037-.228c.006-.077-.007-.155-.038-.227s-.08-.137-.142-.19c-.138-.092-.308-.146-.491-.146-.024 0-.047.001-.07.003h.003-.838v1.119zm1.477 1.636c.068-.053.122-.12.157-.195s.05-.157.044-.238c.005-.082-.011-.165-.046-.24s-.09-.143-.16-.197c-.147-.098-.327-.156-.521-.156-.02 0-.04.001-.06.002h.003-.894v1.173h.905c.016.001.035.002.054.002.192 0 .371-.056.522-.152l-.004.002zm4.984.842-1.109-1.667h-.417v1.667h-.954v-4.266h1.806c.039-.003.085-.004.131-.004.424 0 .815.138 1.132.371l-.005-.004c.252.232.405.537.429.86s-.08.645-.295.905c-.223.23-.527.383-.861.433l1.181 1.705H7.409zM5.882 26.28h.78c.542 0 .813-.215.813-.646.005-.088-.009-.176-.044-.259s-.087-.158-.155-.221c-.149-.11-.336-.176-.539-.176-.026 0-.052.001-.078.003h.003-.789l.009 1.298zm6.739 1.39H10.72l-.336.859h-1l1.745-4.218h1.081l1.739 4.218h-1l-.329-.859zm-.255-.646-.695-1.801-.694 1.801h1.389zm6.781 1.504H18.2l-2.123-2.901v2.901h-.944v-4.266h.944L18.2 27.18v-2.918h.947v4.266zm5.403-1.021c-.206.329-.498.587-.845.747l-.012.005c-.412.187-.869.28-1.331.269h-1.685v-4.266h1.685c.461-.011.918.079 1.331.263.362.164.661.424.857.744.195.347.296.73.296 1.119s-.102.772-.296 1.119zm-1.084-.102c.27-.283.419-.645.419-1.018s-.149-.735-.419-1.018c-.295-.229-.67-.366-1.077-.366-.038 0-.076.001-.113.004h.005-.657v2.761h.657c.433.024.859-.106 1.185-.363zM13.214.533s12.22 4.154 11.961 10.164v10.166s-12.211-4.156-11.957-10.166L13.213.533zm22.848 17.95c2.308-1.43 4.978-2.316 7.764-2.576v-3.182c-3.211 1.114-5.935 3.134-7.764 5.758z" style="fill:var(--color2, #8e8f99)"/>
      <path fill="#8e8f99" d="M34.675 19.442c1.889-3.424 5.164-6.067 9.151-7.384v-9.17S26.422 8.805 26.79 17.364v14.474s.776-.265 1.995-.761c0-.463 0-.929.056-1.398.36-3.974 2.459-7.656 5.834-10.237z" style="fill:var(--color2, #8e8f99)"/>
      <path fill="#8e8f99" d="M33.02 24.819c.091-1.004.295-1.997.609-2.963-2.102 2.229-3.374 4.995-3.639 7.909-.025.275-.039.55-.046.834 1.457-.626 2.556-1.158 3.634-1.726l-.287.138c-.208-.889-.327-1.909-.327-2.957 0-.434.02-.864.061-1.288l-.004.054zm.692.052c-.034.352-.053.761-.053 1.174 0 .928.098 1.833.283 2.706l-.015-.085c4.755-2.561 10.098-6.519 9.892-11.302v-.417c-3.397.342-6.575 1.679-9.047 3.805-.545 1.204-.922 2.6-1.056 4.067l-.004.051z" style="fill:var(--color2, #8e8f99)"/>
    </symbol>
    <symbol id="icon-group-4" viewBox="0 0 34 32">
      <path fill="#8e8f99" d="M5.315 31.394c.013 0 .025.003.036.007s.022.011.03.019l.172.162c-.135.131-.296.235-.475.304l-.01.003c-.19.07-.409.111-.638.111-.017 0-.034 0-.051-.001h.003-.036c-.219 0-.428-.038-.623-.107l.013.004c-.189-.067-.351-.166-.488-.292l.001.001c-.133-.123-.24-.273-.312-.441l-.003-.008c-.07-.166-.11-.359-.11-.562v-.015.001-.023c0-.399.175-.757.452-1.002l.001-.001c.147-.127.323-.226.517-.293.193-.065.414-.103.645-.103h.022-.001c.211-.004.422.028.618.094.171.063.327.151.463.26l-.144.173c-.01.013-.022.023-.036.031H5.36c-.014.008-.031.013-.049.013h-.009c-.023-.001-.044-.008-.063-.018h.001l-.078-.046-.108-.059c-.099-.048-.213-.084-.333-.102l-.007-.001c-.071-.012-.154-.018-.238-.018h-.019.001-.016c-.165 0-.324.028-.472.08l.01-.003c-.145.05-.27.124-.376.218l.001-.001c-.103.095-.185.21-.24.34l-.002.006c-.056.129-.088.28-.088.438v.02-.001c-.003.158.027.315.088.464.053.127.134.244.239.344.099.093.221.166.358.214.141.05.292.075.444.074.088.001.176-.004.263-.015.218-.023.414-.109.571-.238l-.002.001c.022-.018.051-.029.082-.029zm4.977-.814c.003.195-.037.389-.116.573-.07.166-.181.318-.325.445s-.317.226-.509.292c-.196.065-.421.103-.655.103s-.459-.038-.67-.107l.015.004c-.195-.068-.364-.168-.508-.294l.002.001c-.138-.122-.248-.272-.324-.441l-.003-.008c-.073-.169-.116-.366-.116-.573s.043-.404.12-.583l-.004.01c.074-.167.185-.32.327-.451.144-.123.317-.218.506-.282.421-.14.889-.14 1.31 0 .191.066.365.166.508.293.271.242.441.593.441.983 0 .013 0 .026-.001.038v-.002zm-.453 0v-.024c0-.157-.03-.307-.085-.444l.003.008c-.053-.135-.132-.25-.231-.344-.101-.094-.223-.168-.357-.215l-.007-.002c-.142-.048-.306-.076-.476-.076s-.334.028-.487.079l.011-.003c-.141.049-.263.123-.365.218l.001-.001c-.1.094-.18.209-.231.338l-.002.006c-.11.3-.11.621 0 .92.054.135.133.25.232.344.101.094.225.168.364.215.307.098.645.098.952 0 .139-.048.263-.121.364-.215.099-.094.177-.209.229-.337l.002-.006c.058-.148.085-.304.082-.46zm3.848.482.045.103c.017-.037.032-.07.05-.103.019-.039.037-.073.058-.104l-.002.003 1.101-1.71c.022-.029.041-.048.063-.053.022-.006.046-.01.072-.01.006 0 .013 0 .019.001h-.001.325v2.781h-.386v-2.132c-.001-.014-.002-.031-.002-.048s.001-.034.002-.05v.002l-1.107 1.734c-.014.026-.037.048-.065.063s-.061.023-.095.023h-.062c-.034 0-.066-.008-.095-.023s-.051-.037-.065-.064l-1.14-1.745v2.232h-.373v-2.776h.337c.028 0 .055.003.08.01h-.002c.027.011.048.03.06.053l1.125 1.712c.02.029.039.061.054.095l.002.004zm4.143-.138v1.042h-.431v-2.777h.961c.181-.003.362.017.536.061.139.034.269.093.379.173.092.071.165.163.213.268l.002.004c.046.099.073.215.073.337v.019-.001.011c0 .254-.122.479-.311.62l-.002.001c-.111.084-.24.146-.381.184-.145.041-.311.064-.483.064h-.038.002l-.521-.007zm0-.298h.521c.113.001.226-.013.334-.042.092-.027.172-.068.243-.121l-.002.001c.121-.098.198-.247.198-.414v-.004c.005-.077-.01-.154-.043-.226s-.085-.137-.151-.19c-.144-.095-.32-.152-.51-.152-.024 0-.048.001-.072.003h.003-.521v1.145zm5.791 1.344H23.275c-.033 0-.064-.01-.089-.026h.001c-.024-.016-.043-.038-.056-.063v-.001l-.293-.672h-1.471l-.304.672c-.027.054-.082.091-.146.091H20.571l1.293-2.782h.448l1.31 2.782zm-2.133-1.033h1.215l-.513-1.132c-.035-.072-.068-.159-.094-.248l-.003-.013-.05.145c-.017.049-.033.088-.05.126l.003-.008-.509 1.13zm3.995-1.736c.026.012.048.029.065.05l1.885 2.097v-2.16h.386v2.782h-.222c-.029 0-.057-.006-.082-.018h.001c-.027-.013-.05-.031-.069-.052l-1.883-2.095c.001.014.002.031.002.048s-.001.034-.002.05v-.002 2.068h-.386v-2.782h.234c.026 0 .051.005.074.014h-.001zm5.51 1.662v1.104h-.431v-1.104l-1.191-1.675h.395c.031 0 .06.009.085.025h-.001c.023.018.042.038.057.062l.001.001.745 1.081c.03.046.056.088.078.129s.039.079.054.118l.056-.12c.024-.049.048-.091.075-.13l-.002.003.735-1.088c.016-.023.034-.042.055-.059h.001c.024-.018.055-.028.087-.028h.396l-1.194 1.683zm-17.519-6.342c.187.02.377.037.569.052 2.907-1.111 5.366-2.93 7.07-5.228s2.577-4.975 2.511-7.696L20.42 8.912c.651 2.896.347 5.89-.88 8.647s-3.327 5.167-6.066 6.962z" style="fill:var(--color2, #8e8f99)"/>
      <path fill="#8e8f99" d="m12.33 24.393.086.015c2.927-1.789 5.158-4.286 6.406-7.17s1.454-6.021.592-9.006l-4.563-3.899c1.846 3.205 2.589 6.791 2.142 10.342s-2.063 6.921-4.663 9.718zm15.475-9.531c-.775 2.989-2.658 5.685-5.369 7.687-.739.553-1.574 1.073-2.453 1.52l-.098.045c2.207-.554 4.236-1.534 5.93-2.865s3.008-2.975 3.84-4.808l-1.851-1.579z" style="fill:var(--color2, #8e8f99)"/>
      <path fill="#8e8f99" d="m27.079 14.422-2.635-2.251c-.05 2.567-.904 5.075-2.473 7.264s-3.795 3.98-6.448 5.185h.013c.591 0 1.182-.03 1.769-.09 2.479-.865 4.669-2.24 6.375-4.004s2.874-3.861 3.4-6.104zM12.711 2.689 9.568 0c-2.81.928-5.227 2.559-6.934 4.679S.009 9.311 0 11.885c.011 2.844 1.131 5.604 3.184 7.843s4.921 3.829 8.151 4.518c2.883-3.001 4.571-6.709 4.818-10.586s-.958-7.72-3.442-10.971zm21.63 11.319c-.011-3.374-1.585-6.608-4.378-8.994s-6.577-3.731-10.526-3.74h-.036c-1.896 0-3.719.311-5.421.884l.12-.035 19.245 16.443c.659-1.454.997-2.999.995-4.558z" style="fill:var(--color2, #8e8f99)"/>
    </symbol>
    <symbol id="icon-group-3" viewBox="0 0 25 32">
      <path fill="#8e8f99" d="M10.531 1.806h-.084c-.108-.006-.243-.012-.379-.014H9.779c-.244 0-.494.006-.741.019-.008 0-.018-.001-.028-.001s-.02 0-.029.001h.001c-2.376.139-4.581.733-6.575 1.696l.104-.045-.266.128v13.625l.623-.211c.404-.148.982-.323 1.569-.477l.162-.036c1.488-.398 3.202-.638 4.967-.662h.015v1.79c-.237.002-.465.009-.693.021l.038-.002h-.051c-1.399.079-2.71.289-3.972.619l.139-.031c-1.59.398-3.124.996-4.566 1.779V2.53C1.855 1.71 3.45 1.042 5.139.61l.127-.028C6.619.218 8.174.006 9.777 0h.267c.314.008.621.022.909.044.759.053 1.511.173 2.249.358v1.762c-.628-.154-1.372-.271-2.133-.326l-.046-.003-.045-.004c-.152-.013-.304-.026-.446-.026zm3.102 1.801c.391.03.796.044 1.205.044 1.689-.006 3.324-.228 4.882-.639l-.135.03c1.589-.4 3.123-.998 4.564-1.781v17.163c-1.38.82-2.975 1.488-4.665 1.92l-.127.028c-1.353.362-2.908.573-4.51.581h-.116c-1.177 0-2.319-.148-3.409-.425l.095.021V3.274c.265.061.537.117.814.164.455.077.934.133 1.401.167zm8.734.133-.623.21c-.573.192-1.15.365-1.731.518-1.551.415-3.332.656-5.169.663h-.004c-.406 0-.78-.011-1.141-.034l-.497-.033v14.017l.427.038c.395.034.803.052 1.214.052 1.45-.007 2.853-.198 4.19-.553l-.116.026c1.221-.31 2.281-.702 3.286-1.189l-.102.045.266-.128V3.742zM1.684 25.977c-.166-.173-.4-.281-.658-.281-.012 0-.024 0-.037.001h.002-.013c-.139 0-.272.028-.394.078l.007-.003c-.236.096-.419.281-.51.512l-.002.006c-.046.112-.072.241-.072.377v.01-.001 2.335c-.006.165.026.328.092.479.055.12.135.226.233.313.089.076.197.133.315.165l.006.001c.114.032.231.048.349.049.402-.004.746-.252.89-.604l.002-.006c.047-.109.075-.236.075-.37v-.263h-.61V28.999c0 .069-.013.135-.038.196l.001-.004c-.021.052-.051.095-.089.131-.036.029-.079.052-.125.066l-.003.001c-.038.013-.082.021-.128.022-.01.001-.022.002-.034.002-.103 0-.194-.049-.252-.126l-.001-.001c-.051-.082-.082-.181-.082-.288 0-.009 0-.018.001-.027v.001-2.201c0-.118.028-.23.077-.329l-.002.004c.056-.087.152-.143.261-.143.013 0 .026.001.039.002H.982h.009c.107 0 .202.051.263.13l.001.001c.068.09.104.2.101.313v.202h.604v-.246c0-.281-.106-.537-.28-.73l.001.001zm3.626-.027c-.184-.16-.425-.258-.69-.258s-.506.098-.691.259l.001-.001c-.099.09-.179.198-.235.321l-.002.006c-.056.128-.089.277-.089.434v.019-.001 2.268c0 .156.033.303.092.437l-.003-.007c.055.12.136.227.237.313.09.084.197.151.316.195l.006.002c.108.042.233.067.364.067s.256-.024.371-.069l-.007.002c.121-.044.233-.111.33-.197.096-.086.173-.19.228-.307l.002-.006c.056-.127.089-.275.089-.43v-.03.001V26.707c0-.155-.033-.303-.092-.437l.003.007c-.057-.128-.135-.236-.23-.327zm-.285 3.019c.001.01.001.022.001.034 0 .114-.047.216-.122.29-.077.065-.177.105-.287.105s-.21-.04-.288-.105l.001.001c-.076-.072-.123-.174-.123-.287 0-.013.001-.026.002-.039v.002-2.239c-.001-.01-.001-.022-.001-.034 0-.114.047-.216.122-.29.077-.065.177-.105.287-.105s.21.04.288.105l-.001-.001c.076.072.123.174.123.287 0 .013-.001.026-.002.039v-.002 2.239zm5.047 1V25.73h-.587l-.771 2.244h-.011l-.777-2.244h-.581v4.239h.606V27.39h.011l.593 1.823h.302l.598-1.823h.011v2.579h.606zm3.441-3.942c-.092-.103-.207-.182-.337-.23l-.006-.002c-.125-.042-.27-.066-.419-.066h-.92v4.239h.604v-1.656h.311c.188.009.376-.031.545-.116.139-.078.251-.188.33-.32l.002-.004c.067-.106.115-.23.138-.363l.001-.006c.024-.16.035-.321.033-.482.001-.021.001-.046.001-.07 0-.19-.022-.375-.063-.552l.003.016c-.043-.153-.12-.284-.223-.39zm-.312 1.292c-.003.081-.024.157-.057.224l.001-.003c-.035.065-.089.116-.154.148l-.002.001c-.074.034-.161.054-.253.054-.011 0-.023 0-.034-.001h.002-.275v-1.441h.311c.009 0 .019-.001.029-.001.088 0 .172.02.247.055l-.004-.002c.062.037.111.09.141.155l.001.002c.032.069.051.15.053.235v.283c0 .099.006.2 0 .291h-.006zm3.173-1.589h-.495l-.934 4.239h.604l.177-.911h.823l.177.911h.604l-.957-4.239zm-.557 2.751.297-1.537h.011l.296 1.537h-.604zm4.46-.197h-.011l-.912-2.554h-.581v4.239h.604V27.42h.012l.923 2.549h.568V25.73h-.604v2.554zm3.691-2.554-.486 1.685h-.012l-.486-1.685h-.64l.83 2.447v1.792h.604v-1.792l.83-2.447h-.64zM0 31.166h.291v.817h.198v-.817h.29v-.167H.001v.167zm2.447-.168-.381.984h.21l.081-.224h.392l.084.224h.215l-.391-.984h-.21zm-.031.595.134-.365.134.365h-.268zm2.45.027h.227v.127c-.064.051-.145.082-.234.083-.005 0-.011.001-.017.001-.078 0-.147-.036-.192-.093v-.001c-.046-.065-.074-.147-.074-.235 0-.008 0-.016.001-.023v.001c0-.219.095-.329.283-.329.006-.001.014-.001.022-.001.097 0 .178.067.2.157v.001l.195-.038c-.042-.192-.181-.289-.417-.289h-.013c-.128 0-.244.048-.332.128-.088.089-.142.212-.142.347 0 .011 0 .023.001.034v-.002c0 .007-.001.016-.001.025 0 .132.048.252.127.345l-.001-.001c.087.09.208.145.343.145.011 0 .022 0 .033-.001h-.001.016c.155 0 .296-.06.401-.158v-.388h-.427v.166zm2.471-.622h-.199v.984h.69v-.167h-.49v-.817zm2.089 0h-.199v.984h.199v-.984zm2.043.658-.403-.657h-.193v.984h.185v-.643l.395.643h.198v-.984h-.182v.657zm1.846-.107h.49v-.167h-.49v-.216h.528v-.167h-.727v.984h.747v-.167h-.548v-.266zm4.477-.162h-.388v-.388h-.198v.984h.198v-.43h.388v.43h.198v-.984h-.198v.388zm1.857.162h.492v-.167h-.492v-.216h.529v-.167h-.727v.984h.746v-.167h-.548v-.266zm2.519 0c.171-.027.258-.117.258-.274.001-.008.002-.018.002-.028 0-.078-.038-.148-.097-.191h-.001c-.073-.037-.158-.059-.249-.059-.014 0-.027 0-.041.001h.002-.417v.984h.198v-.412h.039c.005 0 .011-.001.017-.001.038 0 .075.008.108.023l-.002-.001c.029.018.052.042.069.071l.001.001.215.313h.237l-.12-.192c-.054-.096-.128-.175-.216-.234l-.002-.002zm-.199-.136h-.146v-.247h.156c.013-.001.027-.002.042-.002.057 0 .112.009.163.026l-.004-.001c.014.013.026.029.033.046.006.015.01.032.01.05 0 .022-.005.043-.015.062v-.001c-.009.017-.022.032-.037.043-.048.015-.104.024-.162.024-.014 0-.028 0-.041-.002h.002zm2.098.136h.49v-.167h-.49v-.216h.529v-.167h-.729v.984h.747v-.167h-.548v-.266z" style="fill:var(--color2, #8e8f99)"/>
    </symbol>
    <symbol id="icon-group-2" viewBox="0 0 28 32">
      <path fill="#8e8f99" d="m4.085 0 4.771 4.546L0 4.541v22.054h23.149v-8.432l4.766 4.541V.001H4.085zm18.854 17.629L9.411 4.74h13.528v12.889zm-4.2 5.74H3.663V8.536h1.066v13.828h14.01v1.004zM6.67 30.68l.562-1.155h.462l-.814 1.529v.891h-.421v-.891l-.814-1.529h.464l.562 1.155zm2.071-1.155h.1l.914 2.42h-.439l-.196-.567h-.937l-.195.567h-.437l.911-2.42h.279zm-.444 1.522h.709l-.355-1.027-.354 1.027zm2.925-.401-.053-.068c-.054-.069-.102-.147-.142-.23l-.003-.008c-.033-.075-.053-.163-.053-.256 0-.113.029-.22.08-.313l-.002.003c.052-.09.127-.162.218-.208l.003-.001c.093-.047.202-.075.318-.075h.017-.001c.123 0 .229.025.317.075.09.049.158.114.206.194.049.081.073.17.073.266 0 .076-.014.146-.042.209s-.066.121-.115.173c-.051.054-.107.102-.166.146l-.004.002-.168.122.479.566c.066-.127.105-.278.105-.438v-.015.001h.346c0 .117-.012.229-.035.334-.032.152-.094.287-.179.403l.002-.003.355.418h-.464l-.141-.165c-.071.055-.153.101-.241.134l-.007.002c-.11.04-.236.063-.368.063h-.008c-.161 0-.3-.029-.417-.088s-.208-.14-.273-.243c-.06-.098-.095-.216-.095-.343v-.012.001c0-.099.021-.185.061-.259.046-.081.102-.15.167-.208l.001-.001c.066-.059.14-.119.224-.178zm.198.243-.05.036c-.051.039-.094.085-.13.136l-.001.002c-.043.062-.069.14-.069.223 0 .068.017.132.047.188l-.001-.002c.032.058.078.105.133.137l.002.001c.06.033.132.05.218.05h.002c.148 0 .283-.052.39-.138l-.001.001-.539-.633zm.096-.442-.028-.035c-.038-.048-.073-.102-.102-.159l-.003-.006c-.023-.045-.037-.098-.038-.155 0-.052.009-.099.028-.141.039-.085.123-.143.222-.143h.01c.081 0 .144.024.188.073s.067.102.067.16v.011c0 .059-.017.114-.046.16l.001-.001c-.041.054-.091.1-.148.135l-.002.001-.148.1zm4.234.71h-.416c-.01.099-.037.19-.078.273l.002-.005c-.038.072-.096.128-.166.164l-.002.001c-.076.036-.166.057-.26.057-.01 0-.02 0-.029-.001h.001c-.098 0-.181-.019-.251-.058s-.127-.094-.173-.165c-.045-.073-.079-.158-.099-.249l-.001-.005c-.02-.096-.032-.207-.032-.321v-.012.001-.204c0-.129.012-.243.035-.342.024-.101.06-.186.108-.254s.107-.121.178-.156c.07-.034.151-.053.237-.053h.012-.001c.116 0 .211.02.283.06.071.038.127.097.162.168l.001.002c.039.078.065.169.073.265v.003h.416c-.015-.16-.063-.306-.139-.435l.003.005c-.073-.125-.176-.223-.309-.294s-.296-.106-.489-.106c-.152 0-.289.027-.411.08-.123.055-.227.133-.31.23l-.001.001c-.086.1-.153.22-.2.361-.043.136-.068.292-.068.454v.019-.001.201c0 .174.022.331.067.472s.111.261.196.361c.083.096.186.174.302.227l.005.002c.12.053.254.08.404.08.195 0 .361-.035.497-.106s.242-.168.317-.291c.074-.121.122-.266.133-.421v-.003zm2.309-.356v-.133c0-.183-.024-.346-.073-.49-.046-.143-.116-.267-.205-.373l.001.002c-.085-.1-.191-.179-.311-.232l-.006-.002c-.117-.051-.253-.081-.395-.081h-.014.001c-.148 0-.284.027-.407.081-.126.055-.232.135-.316.233l-.001.001c-.089.104-.159.228-.204.363l-.002.008c-.046.139-.073.299-.073.466v.025-.001.133c0 .183.024.347.073.492.05.145.12.269.209.371s.196.18.317.234c.123.053.259.08.407.08.15 0 .286-.027.409-.08.125-.056.231-.135.315-.233l.001-.001c.089-.102.157-.226.204-.371s.072-.309.072-.492zm-.417-.136v.136c0 .135-.013.255-.04.359-.023.1-.062.189-.115.267l.002-.003c-.09.13-.239.215-.407.215-.009 0-.017 0-.025-.001h.001-.009c-.086 0-.168-.02-.24-.055l.003.001c-.075-.039-.137-.094-.185-.159l-.001-.002c-.051-.072-.09-.16-.116-.264s-.04-.224-.04-.359v-.136c0-.135.013-.254.04-.357.024-.099.064-.186.117-.264l-.002.003c.091-.131.241-.215.411-.215h.02-.001c.092 0 .175.018.248.055.076.037.138.092.183.158l.001.002c.051.07.089.157.115.261.027.103.04.222.04.357z" style="fill:var(--color2, #8e8f99)"/>
    </symbol>
    <symbol id="icon-facebook" viewBox="0 0 32 32">
      <path fill="#f4f4fd" d="M21.329 5.313h2.921V.225C23.746.156 22.013 0 19.994 0c-4.212 0-7.097 2.649-7.097 7.519V12H8.249v5.688h4.648V32h5.699V17.689h4.46l.708-5.688h-5.169V8.082c.001-1.644.444-2.769 2.735-2.769z" style="fill:var(--color1, #f4f4fd)"/>
    </symbol>
    <symbol id="icon-diagram" viewBox="0 0 32 32">
      <path fill="#4d5ae5" d="M14.926 14.965h1.066v4.798h-1.066v-4.797zm4.264 2.132h1.066v2.665H19.19v-2.665zm-8.529 1.599h1.066v1.066h-1.066v-1.066zm-3.198-.533h1.066v1.599H7.463v-1.599z" style="fill:var(--color3, #4d5ae5)"/>
      <path fill="#2e2f42" d="M1.599 28.291h25.587c.883-.001 1.598-.716 1.599-1.599V24.56c-.001-.883-.716-1.598-1.599-1.599h-.533V9.668L29.681 6.8c.208.105.452.166.712.166.888 0 1.608-.72 1.608-1.608s-.72-1.608-1.608-1.608c-.888 0-1.608.72-1.608 1.608 0 .246.055.48.155.689l-.004-.01L26.655 8.2V6.97c-.001-.883-.716-1.598-1.599-1.599H3.734c-.883.001-1.598.716-1.599 1.599v15.992h-.533c-.883.001-1.598.716-1.599 1.599v2.132c.001.883.716 1.598 1.599 1.599zM30.384 4.837c.295 0 .534.239.534.534s-.239.534-.534.534c-.295 0-.534-.239-.534-.534s.239-.534.534-.534zM3.198 6.969c0-.294.239-.533.533-.533h21.322c.294 0 .533.239.533.533v2.239l-1.066 1.013V8.035c0-.294-.239-.533-.533-.533H4.797c-.294 0-.533.239-.533.533v13.326c0 .294.239.533.533.533h19.19c.294 0 .533-.239.533-.533v-9.674l1.066-1.01v12.284H3.198V6.969zm4.798 6.93h-.002c-.883 0-1.598.715-1.598 1.598s.715 1.598 1.598 1.598c.431 0 .822-.17 1.109-.447h-.001l1.853.93c.069.035.151.056.238.056.158 0 .3-.069.398-.179v-.001l3.939-4.431 3.872 2.901c.088.067.199.107.32.107.142 0 .271-.055.366-.146l3.365-3.188v8.131H5.329V8.568h18.124v2.66L19.682 14.8l-3.904-2.927c-.088-.067-.199-.107-.32-.107-.158 0-.3.069-.398.178v.001l-3.993 4.493-1.493-.746c.011-.064.018-.129.02-.193-.001-.883-.716-1.598-1.599-1.599zm.533 1.599c0 .295-.239.533-.534.533s-.534-.239-.534-.534c0-.295.239-.534.534-.534s.534.239.534.534zm3.198 8.529h5.331v.533c0 .294-.239.533-.533.533h-4.264c-.294 0-.533-.239-.533-.533v-.533zm-10.661.533c0-.294.239-.533.533-.533h9.062v.533c.001.883.716 1.598 1.599 1.599h4.264c.883-.001 1.598-.716 1.599-1.599v-.533h9.062c.294 0 .533.239.533.533v2.132c0 .294-.239.533-.533.533H1.598c-.294 0-.533-.239-.533-.533V24.56z" style="fill:var(--color4, #2e2f42)"/>
    </symbol>
    <symbol id="icon-clock" viewBox="0 0 32 32">
      <path fill="#2e2f42" d="M31.297 15.301C31.295 6.849 24.442-.002 15.989 0S.686 6.855.688 15.308c.001 6.788 4.422 12.543 10.541 14.545l.108.031c.057.018.123.028.191.028.125 0 .242-.035.341-.095l-.003.002c.134-.08.234-.204.282-.352l.001-.005 3.865-12.25c1.051-.006 1.901-.86 1.901-1.912 0-1.056-.856-1.912-1.912-1.912-.301 0-.587.07-.84.194l.011-.005-5.106-5.107c-.115-.115-.275-.187-.451-.187-.352 0-.638.286-.638.638 0 .176.071.336.187.451l5.103 5.109c-.121.241-.191.525-.191.826 0 .601.283 1.137.723 1.48l.004.003-3.683 11.673C3.844 25.782.118 17.709 2.799 10.431S13.553-.573 20.831 2.108c7.278 2.681 11.004 10.754 8.323 18.032-1.345 3.581-4.003 6.406-7.374 7.937l-.088.036-.398-1.874c-.062-.291-.318-.507-.624-.507-.164 0-.313.062-.426.163h.001l-3.837 3.426c-.132.117-.214.287-.214.477 0 .283.185.523.441.606l.005.001 4.899 1.564c.058.019.125.03.195.03.352 0 .638-.286.638-.638 0-.047-.005-.093-.015-.137l.001.004-.391-1.839c5.528-2.374 9.329-7.772 9.329-14.057v-.034.002zm-15.305-.637c.353 0 .639.286.639.639s-.286.639-.639.639c-.353 0-.639-.286-.639-.639s.286-.639.639-.639zm2.101 14.864 2.184-1.948.603 2.84-2.787-.892z" style="fill:var(--color4, #2e2f42)"/>
      <path fill="#4d5ae5" d="M15.354 3.185V4.46c0 .352.286.638.638.638s.638-.286.638-.638V3.185c0-.352-.286-.638-.638-.638s-.638.286-.638.638zM3.876 14.664c-.352 0-.638.286-.638.638s.286.638.638.638h1.275c.352 0 .638-.286.638-.638s-.286-.638-.638-.638H3.876zm24.232 1.275c.352 0 .638-.286.638-.638s-.286-.638-.638-.638h-1.275c-.352 0-.638.286-.638.638s.286.638.638.638h1.275z" style="fill:var(--color3, #4d5ae5)"/>
    </symbol>
    <symbol id="icon-astronaut" viewBox="0 0 32 32">
      <path fill="#4d5ae5" d="M31.974 4.524c-.064-.191-.227-.332-.427-.363h-.003l-1.91-.278-.855-1.731c-.179-.365-.777-.365-.956 0l-.855 1.731-1.91.278c-.259.04-.455.262-.455.529 0 .149.061.284.159.381l1.383 1.348-.326 1.903c-.034.2.048.402.212.522.087.064.195.102.313.102.091 0 .177-.023.252-.064l-.003.001 1.709-.899 1.709.899c.071.038.156.06.246.06.296 0 .536-.24.536-.536 0-.031-.003-.061-.008-.09v.003l-.326-1.903 1.383-1.348c.099-.097.161-.233.161-.383 0-.059-.009-.115-.027-.168l.001.004zm-2.463 1.327c-.099.097-.161.232-.161.382 0 .032.003.063.008.093v-.003l.191 1.114-1-.526c-.072-.039-.158-.062-.249-.062s-.177.023-.252.063l.003-.001-1.001.526.191-1.114c.005-.027.008-.058.008-.09 0-.15-.061-.285-.161-.382l-.81-.789 1.119-.163c.177-.026.324-.137.401-.289l.001-.003.5-1.013.5 1.013c.078.155.225.265.399.292h.003l1.119.163-.809.789zm-3.377 14.671h-1.067v1.067h1.067v-1.067zm0 2.134h-1.067v1.067h1.067v-1.067zm1.066-1.067h-1.067v1.067H27.2v-1.067zm-2.133 0H24v1.067h1.067v-1.067zm-2.667 4.8h-1.067v1.067H22.4v-1.067zm0 2.133h-1.067v1.067H22.4v-1.067zm1.067-1.066H22.4v1.067h1.067v-1.067zm-2.134 0h-1.067v1.067h1.067v-1.067zM16 24.256h-1.067v1.067H16v-1.067zm0 2.133h-1.067v1.067H16v-1.067zm1.067-1.067H16v1.067h1.067v-1.067zm-2.134 0h-1.067v1.067h1.067v-1.067zm-9.066-19.2H4.8v1.067h1.067V6.122zm0 2.133H4.8v1.067h1.067V8.255z" style="fill:var(--color3, #4d5ae5)"/>
      <path fill="#4d5ae5" d="M6.933 7.189H5.866v1.067h1.067V7.189zm-2.133 0H3.733v1.067H4.8V7.189z" style="fill:var(--color3, #4d5ae5)"/>
      <path fill="#2e2f42" d="M24.715 14.159c-.28-.376-.698-.636-1.179-.704l-.009-.001c-.076-.012-.164-.018-.254-.018-.411 0-.789.139-1.09.373l.004-.003-1.252.96-1.898 1.417-1.358-.541c2.421-1.086 4.114-3.508 4.114-6.32 0-3.823-3.123-6.933-6.961-6.933s-6.961 3.11-6.961 6.933v.001c0 1.398.418 2.698 1.136 3.782l-.016-.025-2.769-.024c-.009 0-.015.004-.023.005-.056.002-.109.014-.159.032l.004-.001-.038.013c-.006.003-.013.003-.019.006l-3.234 1.597-1.893.911c-.024.011-.045.023-.064.036l.001-.001c-.482.323-.795.866-.795 1.482 0 .297.073.577.201.823l-.005-.01c.22.429.595.745 1.056.889.161.053.346.083.538.083.308 0 .597-.078.85-.216l-.009.005 1.388-.738 2.264-1.169 1.357-.008-6.783 6.75c-.316.315-.49.732-.49 1.178s.174.863.49 1.179c.325.323.752.485 1.179.485s.854-.162 1.18-.485l1.314-1.309 1.741-1.3.901.897-3.103 3.088c-.316.315-.49.732-.49 1.178s.174.863.49 1.179c.325.323.753.485 1.18.485s.855-.162 1.18-.485l3.483-3.469 1.01-1-.004-.004c.006-.006.015-.009.022-.015l5.166-5.658 3.471.494c.02.003.044.005.068.005.07 0 .136-.014.197-.039l-.003.001c.018-.006.033-.015.05-.023.019-.01.039-.015.058-.027l3.213-2.133c.012-.008.018-.021.029-.029.013-.01.029-.014.041-.026l1.271-1.191c.662-.62.753-1.635.212-2.362zM2.13 17.77c-.098.054-.215.086-.34.086-.078 0-.153-.012-.223-.036l.005.001c-.294-.094-.503-.365-.503-.684 0-.235.113-.444.288-.574l.002-.001 1.314-.632.449 1.313-.992.527zm3.498-1.828-1.548.8-.439-1.283 2.027-1.001-.04 1.484zm15.099-6.62c-.001.932-.222 1.813-.614 2.592l.015-.033-4.181-1.899c-.044-.575-.342-1.073-.782-1.384l-.006-.004 1.464-4.86c2.378.756 4.105 2.974 4.105 5.588zm-11.789 0c0-3.235 2.644-5.867 5.894-5.867.253 0 .5.021.745.052l-1.432 4.754c-.019-.001-.037-.006-.057-.006-1.033 0-1.873.837-1.873 1.867s.84 1.867 1.873 1.867c.694 0 1.294-.383 1.618-.945l3.862 1.755c-1.085 1.456-2.802 2.389-4.737 2.39-3.25 0-5.894-2.632-5.894-5.867zm5.956.8c0 .441-.362.8-.806.8s-.806-.359-.806-.8c0-.441.362-.8.806-.8s.806.359.806.8zM2.465 25.146c-.11.109-.261.176-.428.176s-.317-.067-.427-.175c-.109-.107-.177-.257-.177-.422s.068-.315.177-.422l.962-.958.851.848-.959.955zm3.214 3.734c-.11.109-.261.176-.428.176s-.317-.067-.427-.175c-.109-.107-.177-.257-.177-.422s.068-.315.177-.422l.963-.959.852.848-.96.955zm3.481-3.469-.002.001-1.765 1.76-.852-.848 1.765-1.756c.04-.04.065-.088.09-.135.007-.014.02-.026.026-.04.017-.041.019-.085.026-.129.003-.025.014-.047.014-.073 0-.036-.013-.07-.02-.106-.006-.032-.006-.065-.019-.095-.025-.053-.055-.098-.091-.138-.01-.012-.014-.027-.025-.038h-.001l-.001-.002-1.607-1.6c-.017-.017-.039-.024-.058-.038-.025-.021-.054-.04-.084-.057l-.003-.001c-.026-.013-.057-.024-.089-.032l-.004-.001c-.03-.009-.065-.017-.101-.02h-.023c-.026 0-.052.002-.076.006h.003c-.038.004-.074.011-.108.021l.004-.001c-.036.013-.067.028-.096.046l.002-.001c-.02.011-.042.015-.061.029l-1.773 1.324-.901-.897 2.399-2.386 4.361 4.289-.928.919zm6.819-7.017c-.015-.002-.03.004-.045.003h-.02c-.103 0-.199.028-.282.077l.003-.001c-.031.018-.059.039-.083.061-.013.011-.028.017-.04.029l-4.698 5.146-4.328-4.257 2.833-2.818c.096-.097.156-.23.156-.377 0-.295-.239-.534-.534-.534H8.94v-.001l-2.219.013.028-1.607 3.104.027c1.263 1.297 3.027 2.101 4.978 2.101h.004c.437 0 .864-.045 1.279-.123.04.032.079.065.13.085l2.41.96.152.758.178.885-3.003-.427zm4.041.178-.313-1.558 1.446-1.08.947 1.257-2.08 1.381zm3.754-2.831-.838.785-.931-1.236.831-.637c.122-.093.277-.15.445-.15.035 0 .069.002.102.007h-.004c.198.028.367.132.479.282l.001.002c.088.117.141.265.141.426 0 .205-.087.391-.226.521z" style="fill:var(--color4, #2e2f42)"/>
      <path fill="#2e2f42" d="m13.602 18.544-2.143-2.133c-.097-.096-.23-.155-.377-.155s-.28.059-.377.155l-2.142 2.133c-.096.097-.156.231-.156.378s.059.281.156.378l2.142 2.133c.097.096.23.154.377.154s.28-.059.377-.155l2.143-2.133c.097-.097.156-.23.156-.378s-.06-.281-.156-.378zm-2.519 1.759-1.387-1.381 1.387-1.381 1.387 1.381-1.387 1.381zm6.081-15.232-.258 1.036c.071.018 1.738.452 1.738 2.149h1.067c0-2.017-1.666-2.965-2.547-3.185zm2.547 4.251h-1.067v1.067h1.067V9.322z" style="fill:var(--color4, #2e2f42)"/>
    </symbol>
    <symbol id="icon-antenna" viewBox="0 0 32 32">
      <path fill="#2e2f42" d="m30.773 22.098-8.443-8.505.937-4.615c.242.094.499.144.758.146h.032c1.192 0 2.159-.967 2.159-2.159s-.967-2.159-2.159-2.159c-1.192 0-2.159.967-2.159 2.159 0 .26.046.508.13.739l-.005-.015-4.96.605L8.972.161c-.096-.098-.229-.159-.377-.16-.146.001-.277.06-.373.155L6.709 1.66c-.096.097-.156.23-.156.377s.06.28.156.377l.814.826C6.38 5.302 5.707 7.762 5.707 10.379c0 4.105 1.656 7.824 4.336 10.525l-.001-.001c.041.04.09.073.143.097l.003.001c-.034.18-.051.364-.052.547v6.187h-6.4c-1.472.002-2.665 1.195-2.667 2.667v1.067c0 .295.239.533.533.533h24.533c.294 0 .533-.239.533-.533v-1.067c-.002-1.472-1.195-2.665-2.667-2.667h-6.4v-2.742c.915.2 1.968.317 3.047.32h.002c2.58-.003 5.005-.663 7.117-1.822l-.077.039.818.823c.096.098.229.159.377.16.146-.001.277-.06.373-.155l1.513-1.504c.096-.097.156-.23.156-.377s-.06-.28-.156-.377zM23.28 6.233c.193-.193.46-.312.754-.312.589 0 1.067.478 1.067 1.067s-.478 1.067-1.067 1.067h-.004c-.587-.003-1.061-.48-1.061-1.067 0-.295.12-.563.314-.756h-.002zm-1.256 3.505-.598 2.946-1.175-1.182 1.774-1.763zm-.605-.902-1.92 1.909-1.485-1.493 3.405-.415zM24.004 28.8c.884 0 1.6.716 1.6 1.6v.533H2.137V30.4c0-.884.716-1.6 1.6-1.6h20.267zm-7.467-2.133v1.067h-5.333v-1.067h5.333zM11.204 25.6v-4.053c0-1.294 1.196-2.347 2.667-2.347s2.667 1.053 2.667 2.347V25.6h-5.333zm6.4-1.696v-2.357c0-1.882-1.675-3.413-3.733-3.413h-.058c-1.353 0-2.54.707-3.213 1.771l-.009.016c-2.36-2.482-3.811-5.846-3.811-9.55 0-2.314.567-4.496 1.569-6.414l-.036.077 18.602 18.708c-1.823.947-3.979 1.502-6.266 1.502-1.079 0-2.129-.124-3.136-.358l.093.018zm11.289-.684L7.836 2.039l.755-.752 7.935 7.98c.004 0 .006.007.01.01l13.115 13.191-.757.752z" style="fill:var(--color4, #2e2f42)"/>
      <path fill="#4d5ae5" d="M13.876 20.267h-.007c-.884 0-1.6.716-1.6 1.6s.715 1.599 1.598 1.6h.007c.884 0 1.6-.716 1.6-1.6s-.715-1.599-1.598-1.6zm.373 1.978c-.094.084-.218.135-.355.135-.295 0-.534-.239-.534-.534 0-.137.052-.263.137-.357.096-.095.227-.154.373-.155.293.002.53.241.53.534 0 .147-.06.28-.156.377h.005z" style="fill:var(--color3, #4d5ae5)"/>
    </symbol>
  </defs>
</svg>
